<svg width="64" height="65" viewBox="0 0 64 65" fill="none" xmlns="http://www.w3.org/2000/svg">
<g clip-path="url(#clip0_2_126)">
<path d="M17.2538 4.25903C12.8127 6.56686 8.97418 9.88318 6.04596 13.9421C3.11773 18.001 1.1813 22.6896 0.391923 27.6318H2.24792C14.2159 27.3545 23.5983 26.3177 31.2613 23.971C27.9333 18.0702 23.8714 12.2804 18.9989 6.39237L18.9946 6.3881L17.2538 4.25903ZM0.00792298 31.8985L-0.000610352 32.6665C-0.000610352 41.2724 3.39566 49.0846 8.92099 54.8361L9.60792 53.4537C9.64609 53.3772 9.68883 53.3031 9.73592 53.2318C16.8101 42.4713 24.8143 36.0713 33.7658 33.1998C34.3717 33.0036 34.9861 32.8244 35.6005 32.6622C34.8837 31.0192 34.1197 29.3972 33.3093 27.7982C24.9253 30.499 14.8474 31.6084 2.32046 31.8942H0.0121896L0.00792298 31.8985Z" fill="#09172D"/>
<path d="M12.202 57.8099C17.8396 62.2617 24.816 64.6779 31.9994 64.6665C35.8095 64.6665 39.466 64.0009 42.8495 62.7806V59.7086C41.8084 51.4526 39.978 43.8793 37.226 36.6515C36.5007 36.8307 35.7796 37.0355 35.0671 37.2617C27.2932 39.7577 20.0271 45.3811 13.3711 55.4718L12.2063 57.8099H12.202ZM47.1162 60.8777C51.2406 58.6645 54.8302 55.5749 57.6328 51.8259C60.4353 48.0769 62.3827 43.7596 63.338 39.1774L60.9274 38.0894C53.9898 36.0499 47.5258 35.2137 41.5012 35.8921C44.2234 43.2307 46.0538 50.9364 47.0991 59.3076C47.1119 59.3929 47.1162 59.4782 47.1162 59.5721V60.8777ZM63.9311 34.7657C64.4944 26.3846 61.7267 18.12 56.2298 11.7683L54.9626 13.1721C49.9706 19.2435 44.2703 23.4547 37.3412 26.3219C38.2458 28.131 39.0906 29.9529 39.8714 31.8003C47.0052 30.7763 54.506 31.7406 62.2756 34.0403C62.3703 34.068 62.463 34.1022 62.553 34.1427L63.9311 34.7657ZM53.2303 8.72195C47.3819 3.52199 39.8252 0.654809 31.9994 0.666478C28.2532 0.666478 24.6607 1.30648 21.3199 2.49261L22.2927 3.67875C27.498 9.96355 31.8159 16.1758 35.3402 22.5289C41.9236 19.8707 47.1418 15.9838 51.6986 10.4243C51.7193 10.3982 51.7406 10.3726 51.7626 10.3475L53.2303 8.72621V8.72195Z" fill="#09172D"/>
</g>
<defs>
<clipPath id="clip0_2_126">
<rect width="64" height="64" fill="white" transform="translate(-0.000610352 0.666504)"/>
</clipPath>
</defs>
</svg>
